<svg width="40" height="40" viewBox="0 0 40 40" fill="none" xmlns="http://www.w3.org/2000/svg">
<path d="M0 20C0 8.95431 8.95431 0 20 0C31.0457 0 40 8.95431 40 20C40 31.0457 31.0457 40 20 40C8.95431 40 0 31.0457 0 20Z" fill="#EA4979"/>
<path d="M9.41177 11.7646H11.8198L12.583 14.764M12.583 14.764L14.9911 24.7058H25.8273L28.2353 14.764H12.583Z" stroke="white" stroke-linejoin="round"/>
<path d="M19.5 28.2353C19.5 29.2586 18.6704 30.0882 17.6471 30.0882C16.6237 30.0882 15.7941 29.2586 15.7941 28.2353C15.7941 27.2119 16.6237 26.3823 17.6471 26.3823C18.6704 26.3823 19.5 27.2119 19.5 28.2353Z" stroke="white"/>
<path d="M25.3824 28.2353C25.3824 29.2586 24.5528 30.0882 23.5294 30.0882C22.5061 30.0882 21.6765 29.2586 21.6765 28.2353C21.6765 27.2119 22.5061 26.3823 23.5294 26.3823C24.5528 26.3823 25.3824 27.2119 25.3824 28.2353Z" stroke="white"/>
</svg>
