<svg width="55" height="55" viewBox="0 0 55 55" fill="none" xmlns="http://www.w3.org/2000/svg">
<circle cx="27.5" cy="27.5" r="27.5" fill="#DA394E"/>
<path fill-rule="evenodd" clip-rule="evenodd" d="M20.381 10.3363C22.2223 10.2515 22.8094 10.2327 27.4999 10.2327C32.1903 10.2327 32.7774 10.2531 34.6172 10.3363C36.457 10.4195 37.7128 10.713 38.8116 11.1384C39.9622 11.5732 41.0061 12.253 41.8695 13.132C42.7486 13.9938 43.4267 15.0362 43.86 16.1884C44.287 17.2872 44.5789 18.543 44.6637 20.3796C44.7485 22.2241 44.7673 22.8112 44.7673 27.5001C44.7673 32.1906 44.7469 32.7777 44.6637 34.619C44.5805 36.4556 44.287 37.7114 43.86 38.8103C43.4267 39.9626 42.7475 41.0067 41.8695 41.8698C41.0061 42.7488 39.9622 43.427 38.8116 43.8602C37.7128 44.2872 36.457 44.5792 34.6203 44.6639C32.7774 44.7487 32.1903 44.7676 27.4999 44.7676C22.8094 44.7676 22.2223 44.7471 20.381 44.6639C18.5443 44.5807 17.2885 44.2872 16.1897 43.8602C15.0374 43.4269 13.9933 42.7477 13.1302 41.8698C12.2517 41.0074 11.5719 39.9639 11.1382 38.8119C10.7128 37.713 10.4208 36.4572 10.336 34.6206C10.2513 32.7761 10.2324 32.189 10.2324 27.5001C10.2324 22.8096 10.2528 22.2226 10.336 20.3828C10.4192 18.543 10.7128 17.2872 11.1382 16.1884C11.5726 15.0363 12.2529 13.9928 13.1318 13.1305C13.9936 12.2522 15.0367 11.5724 16.1881 11.1384C17.287 10.713 18.5428 10.421 20.3794 10.3363H20.381ZM34.4775 13.4444C32.6565 13.3612 32.1103 13.3439 27.4999 13.3439C22.8895 13.3439 22.3432 13.3612 20.5222 13.4444C18.8379 13.5213 17.9243 13.8023 17.3152 14.0394C16.5099 14.3533 15.9338 14.7253 15.3295 15.3297C14.7566 15.887 14.3157 16.5656 14.0391 17.3155C13.8021 17.9245 13.5211 18.8381 13.4442 20.5225C13.361 22.3434 13.3437 22.8897 13.3437 27.5001C13.3437 32.1105 13.361 32.6568 13.4442 34.4777C13.5211 36.1621 13.8021 37.0757 14.0391 37.6848C14.3154 38.4335 14.7565 39.1132 15.3295 39.6705C15.8867 40.2435 16.5664 40.6846 17.3152 40.9609C17.9243 41.1979 18.8379 41.4789 20.5222 41.5558C22.3432 41.639 22.8879 41.6563 27.4999 41.6563C32.1118 41.6563 32.6565 41.639 34.4775 41.5558C36.1618 41.4789 37.0754 41.1979 37.6845 40.9609C38.4898 40.6469 39.0659 40.2749 39.6703 39.6705C40.2432 39.1132 40.6843 38.4335 40.9606 37.6848C41.1977 37.0757 41.4786 36.1621 41.5556 34.4777C41.6388 32.6568 41.656 32.1105 41.656 27.5001C41.656 22.8897 41.6388 22.3434 41.5556 20.5225C41.4786 18.8381 41.1977 17.9245 40.9606 17.3155C40.6467 16.5102 40.2746 15.9341 39.6703 15.3297C39.1129 14.7568 38.4344 14.316 37.6845 14.0394C37.0754 13.8023 36.1618 13.5213 34.4775 13.4444ZM25.2943 32.8232C26.5261 33.3359 27.8976 33.4051 29.1747 33.019C30.4518 32.6328 31.5552 31.8153 32.2965 30.706C33.0377 29.5966 33.3709 28.2644 33.239 26.9367C33.1071 25.6091 32.5184 24.3684 31.5734 23.4266C30.971 22.8245 30.2426 22.3635 29.4406 22.0768C28.6387 21.7901 27.7831 21.6847 26.9355 21.7683C26.088 21.8519 25.2695 22.1224 24.539 22.5603C23.8085 22.9981 23.1842 23.5926 22.711 24.3007C22.2378 25.0088 21.9275 25.8131 21.8024 26.6555C21.6774 27.498 21.7406 28.3577 21.9877 29.1727C22.2348 29.9878 22.6595 30.7379 23.2312 31.3691C23.803 32.0004 24.5076 32.497 25.2943 32.8232ZM21.2239 21.2242C22.0481 20.4 23.0265 19.7462 24.1034 19.3002C25.1802 18.8542 26.3343 18.6246 27.4999 18.6246C28.6654 18.6246 29.8195 18.8542 30.8964 19.3002C31.9732 19.7462 32.9516 20.4 33.7758 21.2242C34.6 22.0483 35.2537 23.0268 35.6998 24.1036C36.1458 25.1804 36.3754 26.3346 36.3754 27.5001C36.3754 28.6657 36.1458 29.8198 35.6998 30.8966C35.2537 31.9734 34.6 32.9519 33.7758 33.776C32.1113 35.4405 29.8538 36.3756 27.4999 36.3756C25.1459 36.3756 22.8884 35.4405 21.2239 33.776C19.5595 32.1116 18.6244 29.854 18.6244 27.5001C18.6244 25.1462 19.5595 22.8887 21.2239 21.2242ZM38.3438 19.9464C38.5481 19.7537 38.7116 19.522 38.8246 19.2651C38.9377 19.0081 38.9981 18.731 39.0022 18.4503C39.0063 18.1696 38.954 17.8909 38.8485 17.6307C38.7429 17.3705 38.5862 17.1342 38.3877 16.9356C38.1892 16.7371 37.9528 16.5804 37.6927 16.4749C37.4325 16.3693 37.1538 16.317 36.8731 16.3211C36.5923 16.3252 36.3153 16.3856 36.0583 16.4987C35.8013 16.6118 35.5696 16.7753 35.377 16.9795C35.0023 17.3767 34.7971 17.9043 34.8051 18.4503C34.8131 18.9963 35.0335 19.5177 35.4196 19.9038C35.8057 20.2899 36.3271 20.5103 36.8731 20.5183C37.419 20.5262 37.9466 20.3211 38.3438 19.9464Z" fill="white"/>
</svg>
