<svg width="74" height="50" viewBox="0 0 74 50" fill="none" xmlns="http://www.w3.org/2000/svg">
<path d="M1 24C0.447715 24 6.27225e-08 24.4477 0 25C-6.27225e-08 25.5523 0.447715 26 1 26L1 24ZM73 26C73.5523 26 74 25.5523 74 25C74 24.4477 73.5523 24 73 24L73 26ZM1 26L73 26L73 24L1 24L1 26Z" fill="#15A490"/>
<circle cx="36" cy="25" r="24" fill="white" stroke="#15A490" stroke-width="2"/>
<path d="M51.79 24.6481L48.6025 17.2106C48.5212 17.0186 48.3851 16.8547 48.2113 16.7395C48.0375 16.6242 47.8336 16.5627 47.625 16.5625H44.4375V14.4375C44.4375 14.1557 44.3256 13.8855 44.1263 13.6862C43.927 13.4869 43.6568 13.375 43.375 13.375H23.1875C22.9057 13.375 22.6355 13.4869 22.4362 13.6862C22.2369 13.8855 22.125 14.1557 22.125 14.4375V32.5C22.125 32.7818 22.2369 33.052 22.4362 33.2513C22.6355 33.4506 22.9057 33.5625 23.1875 33.5625H25.4612C25.7059 34.4628 26.2401 35.2576 26.9813 35.8243C27.7225 36.3909 28.6295 36.6979 29.5625 36.6979C30.4955 36.6979 31.4025 36.3909 32.1437 35.8243C32.8849 35.2576 33.4191 34.4628 33.6637 33.5625H40.3363C40.5809 34.4628 41.1151 35.2576 41.8563 35.8243C42.5975 36.3909 43.5045 36.6979 44.4375 36.6979C45.3705 36.6979 46.2775 36.3909 47.0187 35.8243C47.7599 35.2576 48.2941 34.4628 48.5387 33.5625H50.8125C51.0943 33.5625 51.3645 33.4506 51.5638 33.2513C51.7631 33.052 51.875 32.7818 51.875 32.5V25.0625C51.8747 24.9201 51.8458 24.7792 51.79 24.6481ZM44.4375 18.6875H46.9237L49.1975 24H44.4375V18.6875ZM29.5625 34.625C29.1422 34.625 28.7314 34.5004 28.3819 34.2669C28.0325 34.0334 27.7601 33.7015 27.5993 33.3132C27.4384 32.9249 27.3963 32.4976 27.4783 32.0854C27.5603 31.6732 27.7627 31.2946 28.0599 30.9974C28.3571 30.7002 28.7357 30.4978 29.1479 30.4158C29.5601 30.3338 29.9874 30.3759 30.3757 30.5368C30.764 30.6976 31.0959 30.97 31.3294 31.3194C31.5629 31.6689 31.6875 32.0797 31.6875 32.5C31.6875 33.0636 31.4636 33.6041 31.0651 34.0026C30.6666 34.4011 30.1261 34.625 29.5625 34.625ZM40.3363 31.4375H33.6637C33.4191 30.5372 32.8849 29.7424 32.1437 29.1757C31.4025 28.6091 30.4955 28.3021 29.5625 28.3021C28.6295 28.3021 27.7225 28.6091 26.9813 29.1757C26.2401 29.7424 25.7059 30.5372 25.4612 31.4375H24.25V15.5H42.3125V28.845C41.8287 29.1258 41.4051 29.4994 41.0659 29.9442C40.7268 30.3891 40.4788 30.8966 40.3363 31.4375ZM44.4375 34.625C44.0172 34.625 43.6064 34.5004 43.2569 34.2669C42.9075 34.0334 42.6351 33.7015 42.4743 33.3132C42.3134 32.9249 42.2713 32.4976 42.3533 32.0854C42.4353 31.6732 42.6377 31.2946 42.9349 30.9974C43.2321 30.7002 43.6107 30.4978 44.0229 30.4158C44.4351 30.3338 44.8624 30.3759 45.2507 30.5368C45.639 30.6976 45.9709 30.97 46.2044 31.3194C46.4379 31.6689 46.5625 32.0797 46.5625 32.5C46.5625 33.0636 46.3386 33.6041 45.9401 34.0026C45.5416 34.4011 45.0011 34.625 44.4375 34.625ZM49.75 31.4375H48.5387C48.3038 30.5275 47.7738 29.721 47.0317 29.1443C46.2897 28.5675 45.3773 28.2531 44.4375 28.25V26.125H49.75V31.4375Z" fill="#15A490"/>
</svg>
