<svg width="88" height="35" viewBox="0 0 88 35" fill="none" xmlns="http://www.w3.org/2000/svg">
<path d="M1 17H86.5" stroke="#EA4979" stroke-width="2" stroke-linecap="square"/>
<circle cx="43.5" cy="17.5" r="16.5" fill="white" stroke="#EA4979" stroke-width="2"/>
<path fill-rule="evenodd" clip-rule="evenodd" d="M39.5834 8.057C40.5965 8.01036 40.9195 8 43.5 8C46.0805 8 46.4035 8.01123 47.4157 8.057C48.4279 8.10277 49.1188 8.26427 49.7234 8.49832C50.3564 8.73755 50.9307 9.1115 51.4057 9.59514C51.8894 10.0693 52.2625 10.6427 52.5008 11.2766C52.7357 11.8812 52.8964 12.5721 52.943 13.5825C52.9896 14.5973 53 14.9203 53 17.5C53 20.0805 52.9888 20.4035 52.943 21.4166C52.8972 22.427 52.7357 23.118 52.5008 23.7225C52.2624 24.3565 51.8887 24.9309 51.4057 25.4057C50.9307 25.8894 50.3564 26.2625 49.7234 26.5008C49.1188 26.7357 48.4279 26.8964 47.4175 26.943C46.4035 26.9896 46.0805 27 43.5 27C40.9195 27 40.5965 26.9888 39.5834 26.943C38.573 26.8972 37.882 26.7357 37.2775 26.5008C36.6435 26.2624 36.0691 25.8887 35.5943 25.4057C35.111 24.9313 34.737 24.3572 34.4983 23.7234C34.2643 23.1188 34.1036 22.4279 34.057 21.4175C34.0104 20.4027 34 20.0797 34 17.5C34 14.9195 34.0112 14.5965 34.057 13.5843C34.1028 12.5721 34.2643 11.8812 34.4983 11.2766C34.7373 10.6428 35.1116 10.0687 35.5951 9.59427C36.0693 9.11107 36.6431 8.73706 37.2766 8.49832C37.8812 8.26427 38.5721 8.10364 39.5825 8.057H39.5834ZM47.3389 9.767C46.337 9.72123 46.0365 9.71173 43.5 9.71173C40.9635 9.71173 40.663 9.72123 39.6611 9.767C38.7345 9.80932 38.2318 9.96391 37.8967 10.0943C37.4537 10.267 37.1367 10.4717 36.8042 10.8042C36.489 11.1109 36.2465 11.4842 36.0943 11.8967C35.9639 12.2318 35.8093 12.7345 35.767 13.6611C35.7212 14.663 35.7117 14.9635 35.7117 17.5C35.7117 20.0365 35.7212 20.337 35.767 21.3389C35.8093 22.2655 35.9639 22.7682 36.0943 23.1033C36.2463 23.5152 36.489 23.8892 36.8042 24.1958C37.1108 24.511 37.4848 24.7537 37.8967 24.9057C38.2318 25.0361 38.7345 25.1907 39.6611 25.233C40.663 25.2788 40.9626 25.2883 43.5 25.2883C46.0374 25.2883 46.337 25.2788 47.3389 25.233C48.2655 25.1907 48.7682 25.0361 49.1033 24.9057C49.5463 24.733 49.8633 24.5283 50.1958 24.1958C50.511 23.8892 50.7537 23.5152 50.9057 23.1033C51.0361 22.7682 51.1907 22.2655 51.233 21.3389C51.2788 20.337 51.2883 20.0365 51.2883 17.5C51.2883 14.9635 51.2788 14.663 51.233 13.6611C51.1907 12.7345 51.0361 12.2318 50.9057 11.8967C50.733 11.4537 50.5283 11.1367 50.1958 10.8042C49.8891 10.4891 49.5158 10.2465 49.1033 10.0943C48.7682 9.96391 48.2655 9.80932 47.3389 9.767ZM42.2866 20.4286C42.9643 20.7107 43.7188 20.7488 44.4214 20.5363C45.1241 20.3239 45.7311 19.8741 46.1389 19.2638C46.5468 18.6534 46.73 17.9205 46.6575 17.19C46.5849 16.4596 46.2611 15.777 45.7411 15.2589C45.4097 14.9276 45.009 14.674 44.5677 14.5163C44.1265 14.3585 43.6558 14.3005 43.1895 14.3465C42.7232 14.3925 42.2729 14.5413 41.871 14.7822C41.4691 15.0232 41.1256 15.3502 40.8653 15.7398C40.605 16.1294 40.4343 16.5718 40.3654 17.0353C40.2966 17.4988 40.3314 17.9718 40.4674 18.4202C40.6033 18.8686 40.837 19.2813 41.1515 19.6286C41.4661 19.9759 41.8538 20.2491 42.2866 20.4286ZM40.0472 14.0472C40.5006 13.5938 41.0389 13.2341 41.6313 12.9887C42.2238 12.7433 42.8588 12.617 43.5 12.617C44.1412 12.617 44.7762 12.7433 45.3687 12.9887C45.9611 13.2341 46.4994 13.5938 46.9528 14.0472C47.4062 14.5006 47.7659 15.0389 48.0113 15.6313C48.2567 16.2238 48.383 16.8588 48.383 17.5C48.383 18.1412 48.2567 18.7762 48.0113 19.3687C47.7659 19.9611 47.4062 20.4994 46.9528 20.9528C46.0371 21.8686 44.7951 22.383 43.5 22.383C42.2049 22.383 40.9629 21.8686 40.0472 20.9528C39.1314 20.0371 38.617 18.7951 38.617 17.5C38.617 16.2049 39.1314 14.9629 40.0472 14.0472ZM49.466 13.3442C49.5784 13.2382 49.6683 13.1107 49.7305 12.9693C49.7928 12.828 49.826 12.6755 49.8282 12.5211C49.8305 12.3666 49.8017 12.2133 49.7436 12.0702C49.6856 11.927 49.5994 11.797 49.4901 11.6878C49.3809 11.5785 49.2509 11.4923 49.1078 11.4343C48.9646 11.3762 48.8113 11.3474 48.6568 11.3497C48.5024 11.3519 48.35 11.3852 48.2086 11.4474C48.0672 11.5096 47.9397 11.5995 47.8337 11.7119C47.6276 11.9304 47.5147 12.2207 47.5191 12.5211C47.5235 12.8215 47.6448 13.1083 47.8572 13.3207C48.0696 13.5332 48.3565 13.6544 48.6568 13.6588C48.9572 13.6632 49.2475 13.5503 49.466 13.3442Z" fill="#EA4979"/>
</svg>
