<svg width="75" height="50" viewBox="0 0 75 50" fill="none" xmlns="http://www.w3.org/2000/svg">
<path d="M1.5 24C0.947715 24 0.5 24.4477 0.5 25C0.5 25.5523 0.947715 26 1.5 26V24ZM73.5 26C74.0523 26 74.5 25.5523 74.5 25C74.5 24.4477 74.0523 24 73.5 24V26ZM1.5 26H73.5V24H1.5V26Z" fill="#15A490"/>
<circle cx="36.5" cy="25" r="24" fill="white" stroke="#15A490" stroke-width="2"/>
<path d="M47.5001 20H40.4851L41.8888 15.7912C42.1413 15.0312 42.0138 14.1888 41.5451 13.5388C41.0763 12.8888 40.3163 12.5 39.5151 12.5H37.5001C37.1288 12.5 36.7776 12.665 36.5388 12.95L30.6638 20H27.5001C26.1213 20 25.0001 21.1213 25.0001 22.5V33.75C25.0001 35.1287 26.1213 36.25 27.5001 36.25H44.1338C44.6424 36.2483 45.1385 36.0923 45.5566 35.8026C45.9746 35.5129 46.2949 35.1031 46.4751 34.6275L49.9213 25.4387C49.9736 25.2984 50.0003 25.1498 50.0001 25V22.5C50.0001 21.1213 48.8788 20 47.5001 20ZM27.5001 22.5H30.0001V33.75H27.5001V22.5ZM47.5001 24.7738L44.1338 33.75H32.5001V21.7025L38.0851 15H39.5176L37.5651 20.8537C37.5017 21.0416 37.484 21.2419 37.5135 21.438C37.543 21.6341 37.6188 21.8204 37.7346 21.9813C37.8505 22.1422 38.003 22.2732 38.1796 22.3635C38.3562 22.4537 38.5518 22.5005 38.7501 22.5H47.5001V24.7738Z" fill="#15A490"/>
</svg>
