<svg width="74" height="50" viewBox="0 0 74 50" fill="none" xmlns="http://www.w3.org/2000/svg">
<path d="M1 24C0.447715 24 4.82823e-08 24.4477 0 25C-4.82823e-08 25.5523 0.447715 26 1 26L1 24ZM73 26C73.5523 26 74 25.5523 74 25C74 24.4477 73.5523 24 73 24L73 26ZM1 26L73 26L73 24L1 24L1 26Z" fill="#15A490"/>
<circle cx="37" cy="25" r="24" fill="white" stroke="#15A490" stroke-width="2"/>
<path d="M41.2008 9.69996C42.06 9.6997 42.9023 9.9388 43.6333 10.3905C44.3642 10.8421 44.9549 11.4884 45.3391 12.257C45.7233 13.0256 45.8858 13.886 45.8084 14.7417C45.7309 15.5974 45.4167 16.4147 44.9008 17.1018L48.6008 17.1C49.0914 17.1 49.562 17.2949 49.9089 17.6418C50.2559 17.9888 50.4508 18.4593 50.4508 18.95V24.5C50.4508 24.9906 50.2559 25.4612 49.9089 25.8081C49.562 26.155 49.0914 26.35 48.6008 26.35V34.675C48.6008 35.9016 48.1135 37.078 47.2462 37.9453C46.3788 38.8127 45.2024 39.3 43.9758 39.3H31.0258C29.7992 39.3 28.6228 38.8127 27.7554 37.9453C26.8881 37.078 26.4008 35.9016 26.4008 34.675V26.35C25.9101 26.35 25.4396 26.155 25.0926 25.8081C24.7457 25.4612 24.5508 24.9906 24.5508 24.5V18.95C24.5508 18.4593 24.7457 17.9888 25.0926 17.6418C25.4396 17.2949 25.9101 17.1 26.4008 17.1L30.1008 17.1018C29.7364 16.6159 29.4712 16.063 29.3205 15.4746C29.1697 14.8863 29.1364 14.274 29.2223 13.6727C29.3082 13.0715 29.5116 12.493 29.8211 11.9704C30.1305 11.4478 30.5399 10.9912 31.0258 10.6268C31.5117 10.2624 32.0646 9.99724 32.6529 9.84651C33.2413 9.69577 33.8536 9.6624 34.4549 9.74829C35.0561 9.83419 35.6346 10.0377 36.1572 10.3471C36.6798 10.6566 37.1364 11.0659 37.5008 11.5518C37.9304 10.976 38.4887 10.5086 39.1312 10.1871C39.7736 9.86555 40.4824 9.69873 41.2008 9.69996ZM36.5758 26.35H28.2508V34.675C28.2508 35.4109 28.5431 36.1168 29.0636 36.6372C29.584 37.1576 30.2898 37.45 31.0258 37.45H36.5758V26.35ZM46.7508 26.35H38.4258V37.45H43.9758C44.7118 37.45 45.4176 37.1576 45.938 36.6372C46.4584 36.1168 46.7508 35.4109 46.7508 34.675V26.35ZM36.5758 18.95H26.4008V24.5H36.5758V18.95ZM48.6008 18.95H38.4258V24.5H48.6008V18.95ZM41.2008 11.55C40.4648 11.55 39.759 11.8423 39.2386 12.3627C38.7181 12.8831 38.4258 13.589 38.4258 14.325V17.1H41.2008C41.9368 17.1 42.6426 16.8076 43.163 16.2872C43.6834 15.7668 43.9758 15.0609 43.9758 14.325C43.9758 13.589 43.6834 12.8831 43.163 12.3627C42.6426 11.8423 41.9368 11.55 41.2008 11.55ZM33.8008 11.55C33.0881 11.5503 32.4029 11.8248 31.8872 12.3166C31.3714 12.8084 31.0646 13.4798 31.0304 14.1916C30.9961 14.9034 31.237 15.6011 31.7032 16.1402C32.1694 16.6792 32.8251 17.0182 33.5344 17.087L33.8008 17.1H36.5758V14.325L36.5628 14.0586C36.4966 13.3719 36.177 12.7345 35.6664 12.2708C35.1557 11.807 34.4906 11.55 33.8008 11.55Z" fill="#15A490"/>
</svg>
