<svg width="40" height="40" viewBox="0 0 40 40" fill="none" xmlns="http://www.w3.org/2000/svg">
<circle cx="20" cy="20" r="20" fill="#EA4979"/>
<path fill-rule="evenodd" clip-rule="evenodd" d="M15.0433 25.7769C18.7342 25.2376 21.2756 25.284 24.9713 25.7957C25.239 25.8345 25.4836 25.9689 25.6599 26.1739C25.8362 26.379 25.9324 26.6409 25.9306 26.9114C25.9306 27.1702 25.8416 27.4215 25.6809 27.6177C25.4009 27.9599 25.114 28.2965 24.8204 28.6271H26.2444C26.3339 28.5204 26.424 28.4115 26.5151 28.3009C26.835 27.9087 27.0094 27.418 27.009 26.9119C27.009 25.82 26.2121 24.8791 25.1191 24.7281C21.3359 24.2045 18.6916 24.1544 14.8875 24.7103C13.7832 24.8715 12.9894 25.827 12.9894 26.9265C12.9894 27.4145 13.1485 27.897 13.4499 28.288C13.5389 28.4034 13.6268 28.5166 13.7141 28.6277H15.1037C14.8305 28.3007 14.5641 27.9681 14.3046 27.6301C14.1503 27.4278 14.0671 27.1803 14.0679 26.9259C14.0679 26.3452 14.4852 25.8583 15.0433 25.7769Z" fill="white"/>
<path fill-rule="evenodd" clip-rule="evenodd" d="M20.0008 20.539C20.4256 20.539 20.8463 20.4553 21.2388 20.2927C21.6314 20.1301 21.988 19.8918 22.2884 19.5914C22.5889 19.291 22.8272 18.9343 22.9898 18.5418C23.1524 18.1493 23.236 17.7286 23.236 17.3037C23.236 16.8788 23.1524 16.4581 22.9898 16.0656C22.8272 15.6731 22.5889 15.3164 22.2884 15.016C21.988 14.7156 21.6314 14.4773 21.2388 14.3147C20.8463 14.1521 20.4256 14.0684 20.0008 14.0684C19.1427 14.0684 18.3198 14.4093 17.7131 15.016C17.1063 15.6228 16.7655 16.4457 16.7655 17.3037C16.7655 18.1618 17.1063 18.9847 17.7131 19.5914C18.3198 20.1981 19.1427 20.539 20.0008 20.539ZM20.0008 21.6174C21.1448 21.6174 22.242 21.163 23.051 20.354C23.86 19.545 24.3145 18.4478 24.3145 17.3037C24.3145 16.1596 23.86 15.0624 23.051 14.2535C22.242 13.4445 21.1448 12.99 20.0008 12.99C18.8567 12.99 17.7595 13.4445 16.9505 14.2535C16.1415 15.0624 15.687 16.1596 15.687 17.3037C15.687 18.4478 16.1415 19.545 16.9505 20.354C17.7595 21.163 18.8567 21.6174 20.0008 21.6174Z" fill="white"/>
<path fill-rule="evenodd" clip-rule="evenodd" d="M20.0008 29.706C25.3611 29.706 29.7066 25.3605 29.7066 20.0001C29.7066 14.6398 25.3611 10.2943 20.0008 10.2943C14.6404 10.2943 10.2949 14.6398 10.2949 20.0001C10.2949 25.3605 14.6404 29.706 20.0008 29.706ZM20.0008 30.7845C25.9569 30.7845 30.7851 25.9563 30.7851 20.0001C30.7851 14.044 25.9569 9.21582 20.0008 9.21582C14.0446 9.21582 9.21645 14.044 9.21645 20.0001C9.21645 25.9563 14.0446 30.7845 20.0008 30.7845Z" fill="white"/>
</svg>
